<?xml version="1.0" standalone="no"?><!DOCTYPE svg PUBLIC "-//W3C//DTD SVG 1.1//EN" "http://www.w3.org/Graphics/SVG/1.1/DTD/svg11.dtd"><svg t="1621390564685" class="icon" viewBox="0 0 1024 1024" version="1.1" xmlns="http://www.w3.org/2000/svg" p-id="7884" xmlns:xlink="http://www.w3.org/1999/xlink" width="200" height="200"><defs><style type="text/css"></style></defs><path d="M544.00248 963.972v20c-2.112 53.072-77.906 53.032-80 0v-20c2.112-53.072 77.908-53.032 80 0z m120-100c-22.092 0-40 17.908-40 40v80c2.112 53.072 77.906 53.032 80 0v-80c0-22.092-17.908-40-40-40z m-242.04-194c22.092 0 40-17.908 40-40V606.82c55.026-7.684 96.04-52.958 96.04-109.35v-9.818c1.212-60.738-52.138-112.894-112.732-111.68h-36.654c-17.622 0-32.508-15.57-32.508-34v-14.588c0-17.908 13.976-31.412 32.508-31.412h34.662c10.186 0 20.724 6.82 20.724 18.232 0 22.092 17.908 40 40 40s40-17.908 40-40c0-47.942-35.396-87.97-82.04-96.536V191.972c-2.112-53.072-77.906-53.032-80 0v27.08c-49.248 10.928-86.708 57.492-85.854 108.332v14.588c0 62.86 50.47 114 112.508 114h36.654c18.354 0 32.732 13.916 32.732 31.68v9.818c0 17.388-14.072 30.502-32.732 30.502H385.70248c-9.83 0-19.78-6.182-19.78-18 0-22.092-17.908-40-40-40s-40 17.908-40 40c0 53.722 41.888 96.066 96.04 97.934v22.066c0 22.092 17.908 40 40 40z m-153.982 138.01c15.38 0 30.044-8.922 36.636-23.904 8.896-20.222-0.286-43.826-20.508-52.72C160.11848 676.816 80.00248 554.59 80.00248 419.972 91.51248 2.95 679.84048-44.358 755.78648 366.242c3.46 21.814 23.954 36.7 45.772 33.236 21.818-3.46 36.7-23.954 33.24-45.772-15.492-97.666-65.49-187.178-140.786-252.048C425.01448-131.868-1.18952 63.356 0.00448 419.978 0.00248 586.304 98.87648 737.274 251.89648 804.588a39.834 39.834 0 0 0 16.084 3.394zM904.00248 467.972h-100c-53.072 2.112-53.032 77.906 0 80h85.422l-153.706 153.65c-8.05 8.05-18.684 12.526-29.04 12.36-8.982-0.166-18.138-3.948-25.506-10.458 0 0-5.502-7.38-7.052-8.93-23.02-23.022-53.844-36.372-84.12-36.622-31.33 0-63.228 13.688-86.612 37.658l-259.694 260.08c-15.608 15.632-15.59 40.96 0.042 56.57s40.958 15.588 56.57-0.042l259.876-260.26 0.39-0.396c8.366-8.598 19.146-13.674 29.032-13.606 8.556 0.07 18.064 4.232 25.896 11.246 20.452 28.032 56.11 44.136 89.688 44.748 32.076 0.572 63.766-12.442 87.094-35.772L944.00248 606.53v79.442c2.112 53.072 77.906 53.032 80 0v-98c0-66.168-53.832-120-120-120z m-314 190c0.296 0-0.294-0.002 0 0z m394 142c-22.092 0-40 17.908-40 40v144c2.112 53.072 77.906 53.032 80 0v-144c0-22.092-17.908-40-40-40z m-160 36c-22.092 0-40 17.908-40 40v108c2.112 53.072 77.906 53.032 80 0v-108c0-22.092-17.908-40-40-40z" p-id="7885" fill="#e7475e"></path></svg>