<?xml version="1.0" standalone="no"?><!DOCTYPE svg PUBLIC "-//W3C//DTD SVG 1.1//EN" "http://www.w3.org/Graphics/SVG/1.1/DTD/svg11.dtd"><svg t="1621355973457" class="icon" viewBox="0 0 1024 1024" version="1.1" xmlns="http://www.w3.org/2000/svg" p-id="575" width="200" height="200" xmlns:xlink="http://www.w3.org/1999/xlink"><defs><style type="text/css"></style></defs><path d="M607.232 280.608a27.808 27.808 0 0 0-27.808-27.776h-80.096a27.776 27.776 0 0 0-27.776 27.776v76.224h-80.736a27.776 27.776 0 0 0-27.776 27.776v80.032a27.84 27.84 0 0 0 27.776 27.808h80.736v80.736a27.84 27.84 0 0 0 27.776 27.808h80.096a27.84 27.84 0 0 0 27.808-27.808V492.48h76.192a27.84 27.84 0 0 0 27.808-27.808V384.64a27.808 27.808 0 0 0-27.808-27.776h-76.192V280.608z" fill="#e7475e" p-id="576"></path><path d="M541.632 0C320.992 0 141.472 179.456 141.472 400.064c0 294.944 349.216 591.424 364.064 603.904 19.648 16.512 48 17.568 68.864 2.592 14.976-10.784 367.328-268.16 367.328-606.496C941.728 179.456 762.208 0 541.632 0z m45.312 849.152a60.48 60.48 0 0 1-84.608-1.888c-105.472-107.744-248.64-289.344-248.64-447.232 0-158.688 129.184-287.872 287.936-287.872 158.688 0 287.872 129.184 287.872 287.872-0.032 191.232-147.616 360.224-242.56 449.12z" fill="#e7475e" p-id="577"></path></svg>