<?xml version="1.0" standalone="no"?><!DOCTYPE svg PUBLIC "-//W3C//DTD SVG 1.1//EN" "http://www.w3.org/Graphics/SVG/1.1/DTD/svg11.dtd"><svg t="1621390613521" class="icon" viewBox="0 0 1024 1024" version="1.1" xmlns="http://www.w3.org/2000/svg" p-id="8067" xmlns:xlink="http://www.w3.org/1999/xlink" width="200" height="200"><defs><style type="text/css"></style></defs><path d="M404.01126 400.01V522c0 22.09 17.906 39.996 39.996 39.996 22.09 0 39.996-17.906 39.996-39.996v-121.988c0-22.09-17.906-39.996-39.996-39.996-22.09-0.002-39.996 17.904-39.996 39.994z" p-id="8068" fill="#e7475e"></path><path d="M1013.91326 793.926a39.948 39.948 0 0 0-4.51-7.792l-88.494-119.468c-6.014-14.484-20.284-24.676-36.944-24.676H180.03126v-419.96c0-44.108 35.884-79.992 79.992-79.992h503.952c44.108 0 79.992 35.884 79.992 79.992v259.976c0 22.09 17.906 39.996 39.996 39.996 22.09 0 39.996-17.906 39.996-39.996V222.028c0-88.216-71.77-159.986-159.984-159.986H260.02526c-88.216 0-159.984 71.77-159.984 159.986v448.758L14.59726 786.132a39.964 39.964 0 0 0-4.51 7.792c-16.266 37.226-12.698 79.746 9.546 113.742 22.244 33.996 59.778 54.292 100.404 54.292h783.926c40.626 0 78.16-20.294 100.404-54.292 22.246-33.996 25.814-76.514 9.546-113.74z m-76.48 69.94c-7.526 11.502-19.724 18.098-33.468 18.098H651.98726c0-22.09-17.906-39.996-39.996-39.996h-199.982c-22.09 0-39.996 17.906-39.996 39.996H120.03726c-13.744 0-25.944-6.596-33.468-18.098-6.826-10.432-8.416-22.77-4.544-34.372l78.158-105.516h703.636l78.158 105.516c3.868 11.602 2.282 23.942-4.544 34.372z" p-id="8069" fill="#e7475e"></path><path d="M264.02326 360.014V522c0 22.09 17.906 39.996 39.996 39.996s39.996-17.906 39.996-39.996v-161.986c0-22.09-17.906-39.996-39.996-39.996s-39.996 17.906-39.996 39.996zM543.99726 260.024V522c0 22.09 17.906 39.996 39.996 39.996 22.09 0 39.996-17.906 39.996-39.996V260.024c0-22.09-17.906-39.996-39.996-39.996-22.09-0.002-39.996 17.906-39.996 39.996zM683.98526 462.004v59.994c0 22.09 17.906 39.996 39.996 39.996 22.09 0 39.996-17.906 39.996-39.996v-59.994c0-22.09-17.906-39.996-39.996-39.996-22.09 0-39.996 17.906-39.996 39.996z" p-id="8070" fill="#e7475e"></path></svg>